<svg width="37" height="37" viewBox="0 0 37 37" fill="none" xmlns="http://www.w3.org/2000/svg">
<path fill-rule="evenodd" clip-rule="evenodd" d="M29.8297 15.7274C29.8297 15.3019 29.4844 14.9566 29.0589 14.9566H8.71512C8.28807 14.9566 7.94428 15.3019 7.94428 15.7274C7.94428 17.2645 7.91653 18.6967 7.89032 20.0241C7.77624 25.8038 7.7007 29.6225 10.0363 32.0044C11.6952 33.6956 14.4193 34.451 18.87 34.451C23.3254 34.451 26.0542 33.694 27.7176 31.9997C30.0641 29.6071 29.9901 25.7699 29.8806 19.9578C29.8559 18.6489 29.8297 17.2383 29.8297 15.7274Z" fill="#130F0F"/>
<path fill-rule="evenodd" clip-rule="evenodd" d="M31.3344 9.83336H24.9503C24.8871 8.82511 24.6081 7.40369 23.6044 6.25052C22.5438 5.03107 20.9559 4.41132 18.8839 4.41132C16.8134 4.41132 15.2256 5.03107 14.1649 6.25052C13.1613 7.40369 12.8807 8.82511 12.8175 9.83336H6.43652C5.79827 9.83336 5.28027 10.3514 5.28027 10.9896C5.28027 11.6279 5.79827 12.1459 6.43652 12.1459H31.3344C31.9726 12.1459 32.4906 11.6279 32.4906 10.9896C32.4906 10.3514 31.9726 9.83336 31.3344 9.83336Z" fill="#130F0F"/>
</svg>
